<?xml version="1.0" standalone="no"?><!-- Generator: Gravit.io --><svg xmlns="http://www.w3.org/2000/svg" xmlns:xlink="http://www.w3.org/1999/xlink" style="isolation:isolate" viewBox="0 0 700 200" width="700" height="200"><defs><clipPath id="_clipPath_1UwzeLNZufiHcC2F6PyPvI0txMbzaJ3c"><rect width="700" height="200"/></clipPath></defs><g clip-path="url(#_clipPath_1UwzeLNZufiHcC2F6PyPvI0txMbzaJ3c)"><g id="Grupo"><path d=" M 131.401 99.331 L 111.058 99.331 L 111.058 78.989 C 111.058 77.374 109.767 76.083 108.152 76.083 L 84.904 76.083 C 83.29 76.083 81.998 77.374 81.998 78.989 L 81.998 99.331 L 61.656 99.331 C 60.042 99.331 58.75 100.622 58.75 102.237 L 58.75 125.485 C 58.75 127.099 60.042 128.391 61.656 128.391 L 81.998 128.391 L 81.998 148.733 C 81.998 150.348 83.29 151.639 84.904 151.639 L 108.152 151.639 C 109.767 151.639 111.058 150.348 111.058 148.733 L 111.058 128.391 L 131.401 128.391 C 133.015 128.391 134.307 127.099 134.307 125.485 L 134.307 102.237 C 134.145 100.622 132.854 99.331 131.401 99.331 L 131.401 99.331 Z  M 84.528 122.579 L 64.562 122.579 L 64.562 105.143 L 84.528 111.497 L 84.528 122.579 Z " fill="rgb(0,197,231)"/><rect x="61.656" y="105.143" width="34.872" height="20.218" transform="matrix(1,0,0,1,0,0)" fill="rgb(0,197,231)"/></g><g transform="matrix(1,0,0,1,138.25,54.361)"><text transform="matrix(1,0,0,1,0,95)" style="font-family:&quot;Kelson Sans&quot;;font-weight:400;font-size:100px;font-style:normal;fill:#878eac;stroke:none;">data</text><text transform="matrix(1,0,0,1,190.7,95)" style="font-family:&quot;Kelson Sans&quot;;font-weight:700;font-size:100px;font-style:normal;fill:#00c5e7;stroke:none;">saúde</text></g></g></svg>