<?xml version="1.0" standalone="no"?><!-- Generator: Gravit.io --><svg xmlns="http://www.w3.org/2000/svg" xmlns:xlink="http://www.w3.org/1999/xlink" style="isolation:isolate" viewBox="0 0 100 100" width="100" height="100"><defs><clipPath id="_clipPath_BLADut2mKPUf91GYxkPDXTaHHLgFMpb1"><rect width="100" height="100"/></clipPath></defs><g clip-path="url(#_clipPath_BLADut2mKPUf91GYxkPDXTaHHLgFMpb1)"><g id="Grupo"><path d=" M 84.872 35.47 L 64.53 35.47 L 64.53 15.128 C 64.53 13.513 63.239 12.222 61.624 12.222 L 38.376 12.222 C 36.761 12.222 35.47 13.513 35.47 15.128 L 35.47 35.47 L 15.128 35.47 C 13.513 35.47 12.222 36.761 12.222 38.376 L 12.222 61.624 C 12.222 63.239 13.513 64.53 15.128 64.53 L 35.47 64.53 L 35.47 84.872 C 35.47 86.487 36.761 87.778 38.376 87.778 L 61.624 87.778 C 63.239 87.778 64.53 86.487 64.53 84.872 L 64.53 64.53 L 84.872 64.53 C 86.487 64.53 87.778 63.239 87.778 61.624 L 87.778 38.376 C 87.617 36.761 86.325 35.47 84.872 35.47 L 84.872 35.47 Z  M 38 58.718 L 18.034 58.718 L 18.034 41.282 L 38 47.636 L 38 58.718 Z " fill="rgb(0,197,231)"/><rect x="15.128" y="41.282" width="34.872" height="20.218" transform="matrix(1,0,0,1,0,0)" fill="rgb(0,197,231)"/></g></g></svg>